<svg xmlns="http://www.w3.org/2000/svg" viewBox="0 0 284.87 260.36">
  <path fill="#fff" d="M153.17 0A132.1 132.1 0 0031.76 79.33L23 63.94A12.21 12.21 0 101.64 75.77l22.37 40a12.19 12.19 0 0016.27 4.83l39.79-20.3A12.2 12.2 0 1069.9 78.11c-.3.14-.6.29-.89.45L55.92 85.3a107.54 107.54 0 0197.25-60.89c59.52 0 107.3 47.3 107.3 105.77S212.69 236 153.17 236c-50.91 0-93.32-35-104.5-81.49a12.22 12.22 0 10-23.77 5.72c13.8 57.45 66.19 100.18 128.27 100.18 72.54 0 131.7-58.34 131.7-130.18S225.71 0 153.17 0zm1.4 52.63A12.21 12.21 0 00142.49 65v65.22a12.19 12.19 0 004.58 9.53l40.68 32.55A12.21 12.21 0 00203 153.2l-36.1-28.86V65.09a12.21 12.21 0 00-12-12.46z" data-name="Calque 2"/>
</svg>
