<svg xmlns="http://www.w3.org/2000/svg" viewBox="0 0 283.68 284.11"><defs/><defs><clipPath id="clip-path" transform="translate(-216.15 -218)"><path fill="none" d="M672.78 3.84c-60.33 2.31-120.69 3.78-181 6.1S371 14.75 310.55 17.05C207.07 21 103.55 24.31 0 25.23v673.46a89.56 89.56 0 0089.56 89.56h536.85A89.56 89.56 0 00716 698.69V0c-14.46 1.81-28.86 3.29-43.22 3.84z"/></clipPath></defs><g id="Calque_2" data-name="Calque 2"><g id="center" clip-path="url(#clip-path)" opacity=".3"><path d="M329.73 364.62a3.53 3.53 0 003.21 2 3.61 3.61 0 001.52-.34 3.55 3.55 0 001.68-4.73 62.76 62.76 0 00-5.53-9.67 3.55 3.55 0 00-5.79 4.11 57.17 57.17 0 014.91 8.63zM385.35 436.39a35 35 0 01-9.26-2.26 3.55 3.55 0 00-2.63 6.6 42.16 42.16 0 0011.14 2.72h.38a3.55 3.55 0 00.37-7.08zM353.37 407.78c-1.17-2.76-2.4-5.92-3.75-9.65a3.55 3.55 0 00-6.68 2.42c1.4 3.85 2.67 7.12 3.89 10a3.54 3.54 0 003.27 2.17 3.63 3.63 0 001.39-.28 3.55 3.55 0 001.88-4.66zM360.88 421.87c-.48-.67-.95-1.37-1.41-2.09a3.55 3.55 0 00-6 3.79c.53.83 1.08 1.64 1.63 2.42a45.34 45.34 0 005.51 6.42 3.55 3.55 0 004.92-5.12 39.09 39.09 0 01-4.65-5.42z" class="cls-4" transform="translate(-216.15 -218)"/><path d="M219.71 502.12a2.83 2.83 0 00.41 0l91.78-10.81 91.77 10.81h.41a3 3 0 00.42 0l92.19-10.86a3.56 3.56 0 003.14-3.53V221.56a3.56 3.56 0 00-4-3.53l-91.78 10.81L312.31 218a3.07 3.07 0 00-.42 0 2.86 2.86 0 00-.42 0l-92.19 10.86a3.56 3.56 0 00-3.13 3.53v266.17a3.54 3.54 0 001.19 2.66 3.59 3.59 0 002.37.9zm3.55-20.35a28.65 28.65 0 0016.13-1.46c10.43-4.08 18.87-14 25.07-29.49 10.54-26.37 34.54-33.23 43.89-34.94v68.66l-85.09 10zm92.19-67c8-1.86 28.51-9.81 41.23-43.46 11.49-30.42 35.22-33.95 43.86-34.19v98.09c-.66.16-1.39.34-2.28.52a3.55 3.55 0 00.69 7 4.11 4.11 0 00.69-.06l.89-.2v52l-85.08-10V414.8zm92.19 79.77v-52.02c.3.07.56.14.89.2a3.3 3.3 0 00.69.07 3.55 3.55 0 00.69-7c-.89-.17-1.62-.35-2.28-.52v-98.1c8.62.32 32.48 4 43.86 34.16 12.72 33.65 33.23 41.61 41.23 43.46v69.75zm85.08-153.64a20.48 20.48 0 00-2.88.8 3.55 3.55 0 001.22 6.89 3.8 3.8 0 001.23-.22c.14-.06.29-.08.43-.13v59.23c-5.24-1.52-15-6-24.11-18.61a3.42 3.42 0 001.22-1.66c1.13-3.35 2.27-6.67 3.44-9.89a3.55 3.55 0 00-6.68-2.42c-.82 2.27-1.62 4.62-2.42 7a93.76 93.76 0 01-6-13c-12.87-34-40.33-38.33-50.51-38.72v-94.59l85.09-10V340.9zm-92.19-10.8c-10.18.39-37.63 4.69-50.5 38.72a94.38 94.38 0 01-6 13c-.8-2.34-1.6-4.69-2.42-7a3.55 3.55 0 00-6.68 2.42c1.16 3.22 2.3 6.54 3.43 9.89a3.63 3.63 0 001.22 1.67c-9.1 12.66-18.88 17.08-24.11 18.61v-59.16c.14.05.3.07.43.12a3.55 3.55 0 102.45-6.66 19.21 19.21 0 00-2.88-.8V225.55l85.09 10v94.55zm-92.18-104.55v113.53l-.25-.09a3.55 3.55 0 00-2.46 6.67c1.06.39 1.94.7 2.71 1v62.06c-9.73 1.57-38.14 8.71-50.48 39.49-5.42 13.52-12.46 22.09-20.93 25.47a21.61 21.61 0 01-13.68.85V291.09H225a3.55 3.55 0 00.09-7.1h-1.86v-48.41z" class="cls-4" transform="translate(-216.15 -218)"/><path d="M284.38 335.37a98.84 98.84 0 008.89 5 3.55 3.55 0 003.15-6.37 90.7 90.7 0 01-8.24-4.6 3.55 3.55 0 10-3.8 6zM261.83 306.26a3.54 3.54 0 003.06 1.75 3.47 3.47 0 001.8-.5 3.55 3.55 0 001.26-4.86 40.11 40.11 0 00-6.52-8.49 3.55 3.55 0 00-5 5.08 33 33 0 015.4 7.02zM237.84 291.78a44.22 44.22 0 018.9 1.69 3.38 3.38 0 001.08.17 3.55 3.55 0 001.07-6.93 49.82 49.82 0 00-10.33-2 3.55 3.55 0 00-.72 7.07zM267.17 317.78a32.29 32.29 0 006.33 9 3.55 3.55 0 105.09-4.94 25.75 25.75 0 01-5-7 3.55 3.55 0 10-6.45 3zM432.08 434.13a35 35 0 01-9.26 2.26 3.55 3.55 0 00.37 7.08h.38a42.15 42.15 0 0011.14-2.71 3.56 3.56 0 10-2.63-6.61zM463.1 396a3.57 3.57 0 00-4.55 2.13c-1.34 3.73-2.57 6.89-3.74 9.65a3.55 3.55 0 006.54 2.78c1.22-2.89 2.49-6.16 3.88-10a3.56 3.56 0 00-2.13-4.56zM453.59 418.66a3.56 3.56 0 00-4.9 1.12c-.45.72-.92 1.41-1.4 2.09a37.83 37.83 0 01-4.65 5.41 3.56 3.56 0 004.93 5.13 45.1 45.1 0 005.5-6.41c.56-.78 1.11-1.6 1.64-2.44a3.56 3.56 0 00-1.12-4.9zM473.72 366.3a3.42 3.42 0 001.52.35 3.56 3.56 0 003.21-2 57 57 0 014.9-8.6 3.55 3.55 0 10-5.79-4.12 63.59 63.59 0 00-5.53 9.67 3.55 3.55 0 001.69 4.7zM435 298.91a3.55 3.55 0 005 5l10.6-10.66v37a3.56 3.56 0 007.11 0v-37l10.6 10.66a3.56 3.56 0 005-5l-15.61-15.73v-6.68l10.6 10.66a3.58 3.58 0 002.52 1 3.55 3.55 0 002.52-6.06l-15.64-15.68v-5.2l10.6 10.66a3.56 3.56 0 005-5l-16.68-16.75a3.56 3.56 0 00-5 0L435 266.87a3.56 3.56 0 105 5l10.6-10.67v5.21L435 282.15a3.55 3.55 0 005 5l10.6-10.66v6.69zM274.36 358.74a3.55 3.55 0 105-5L262.72 337a3.55 3.55 0 00-5 0L241 353.72a3.56 3.56 0 005 5l10.61-10.66v5.2L241 369a3.55 3.55 0 005 5l10.61-10.66v6.69L241 385.77a3.56 3.56 0 005 5l10.61-10.66v37a3.55 3.55 0 107.1 0v-37l10.61 10.66a3.55 3.55 0 105-5L263.75 370v-6.7l10.61 10.7a3.55 3.55 0 105-5l-15.64-15.72v-5.21zM359.76 276.33A17.8 17.8 0 00342 294.11c0 11.8 15.91 29.44 16.59 30.19a1.61 1.61 0 002.28.11l.11-.11c.68-.75 16.59-18.39 16.59-30.19a17.8 17.8 0 00-17.81-17.78zm0 22.63a4.85 4.85 0 114.85-4.85 4.85 4.85 0 01-4.85 4.89z" class="cls-4" transform="translate(-216.15 -218)"/></g></g></svg>